# xmcd
#
# Track frame offsets:
#	150
#	20572
#	43125
#	60722
#	78267
#	98192
#	116882
#	136690
#	155417
#
# Disc length: 2370 seconds
#
# Revision: 1
# Processed by: cddbd v1.5PL3 Copyright (c) Steve Scherf et al.
# Submitted via: CDex 1.50Beta5
#
DISCID=71094009
DTITLE=サンディアンドサンセッツ - ラララララブ
DYEAR=1900
DGENRE=Rock
TTITLE0=BATTERY
TTITLE1=THE ACT OF LOVE
TTITLE2=BANZAI BABY
TTITLE3=EAST MEETS WEST
TTITLE4=THIS IS NOT ENOUGH
TTITLE5=AISHI AISHI
TTITLE6=FASCINATION
TTITLE7=UNDRESSING SLOWLY
TTITLE8=THE SERIOUS GAME
EXTD=
EXTT0=
EXTT1=
EXTT2=
EXTT3=
EXTT4=
EXTT5=
EXTT6=
EXTT7=
EXTT8=
PLAYORDER=
